<?xml version="1.0" encoding="utf-8"?>
<svg viewBox="1119.0999755859375 756.1998901367188 80.60009765625 80.6002197265625" width="80.60009765625" height="80.6002197265625" xmlns="http://www.w3.org/2000/svg"><g transform="matrix(1, 0, 0, 1, 0, 0)">
		<path d="M 1199.700024 796.5 A 40.299999 40.299999 0 0 1 1159.400024 836.799999 A 40.299999 40.299999 0 0 1 1119.100025 796.5 A 40.299999 40.299999 0 0 1 1159.400024 756.200001 A 40.299999 40.299999 0 0 1 1199.700024 796.5 Z" fill="#2A9D82"/>
		<path d="M 1186.600025 796.5 A 27.200001 27.200001 0 0 1 1159.400024 823.700001 A 27.200001 27.200001 0 0 1 1132.200024 796.5 A 27.200001 27.200001 0 0 1 1159.400024 769.299999 A 27.200001 27.200001 0 0 1 1186.600025 796.5 Z" fill="#1F7C63"/>
		<path d="M 1179.400024 796.5 A 20 20 0 0 1 1159.400024 816.5 A 20 20 0 0 1 1139.400024 796.5 A 20 20 0 0 1 1159.400024 776.5 A 20 20 0 0 1 1179.400024 796.5 Z" fill="#E6E7E8"/>
		<path d="M 1166.300025 796.5 A 6.9 6.9 0 0 1 1159.400024 803.4 A 6.9 6.9 0 0 1 1152.500024 796.5 A 6.9 6.9 0 0 1 1159.400024 789.6 A 6.9 6.9 0 0 1 1166.300025 796.5 Z" fill="#414042"/>
		<g>
			<path fill="#414042" d="M1159.4,810.3L1159.4,810.3c-1.8,0-3.6-0.3-5.3-1c-0.5-0.2-0.7-0.8-0.5-1.3c0.2-0.5,0.8-0.7,1.3-0.5&#10;&#9;&#9;&#9;&#9;c1.4,0.6,2.9,0.9,4.5,0.9c0.5,0,1,0.4,1,1S1160,810.3,1159.4,810.3z M1164.3,809.3c-0.4,0-0.7-0.2-0.9-0.6&#10;&#9;&#9;&#9;&#9;c-0.2-0.5,0-1.1,0.5-1.3c1.4-0.6,2.7-1.5,3.8-2.6c0.4-0.4,1-0.4,1.4,0c0.4,0.4,0.4,1,0,1.4c-1.3,1.3-2.8,2.3-4.5,3&#10;&#9;&#9;&#9;&#9;C1164.6,809.3,1164.4,809.3,1164.3,809.3z M1150.4,806.6c-0.2,0-0.5-0.1-0.7-0.3c-1.3-1.3-2.3-2.8-3-4.5c-0.2-0.5,0-1.1,0.5-1.3&#10;&#9;&#9;&#9;&#9;c0.5-0.2,1.1,0,1.3,0.5c0.6,1.4,1.5,2.7,2.6,3.8c0.4,0.4,0.4,1,0,1.4C1150.9,806.5,1150.6,806.6,1150.4,806.6z M1171.2,802.4&#10;&#9;&#9;&#9;&#9;c-0.1,0-0.3,0-0.4-0.1c-0.5-0.2-0.7-0.8-0.5-1.3c0.6-1.4,0.9-3,0.9-4.5c0-0.5,0.4-1,1-1s1,0.4,1,1v0.1c0,1.8-0.4,3.6-1,5.3&#10;&#9;&#9;&#9;&#9;C1172,802.2,1171.6,802.4,1171.2,802.4z M1146.6,797.5c-0.5,0-1-0.4-1-1v0c0-1.8,0.3-3.6,1-5.2c0.2-0.5,0.8-0.7,1.3-0.5&#10;&#9;&#9;&#9;&#9;c0.5,0.2,0.7,0.8,0.5,1.3c-0.6,1.4-0.9,2.9-0.9,4.5C1147.6,797.1,1147.1,797.5,1146.6,797.5z M1171.2,792.6&#10;&#9;&#9;&#9;&#9;c-0.4,0-0.7-0.2-0.9-0.6c-0.6-1.4-1.5-2.7-2.6-3.8c-0.4-0.4-0.4-1,0-1.4c0.4-0.4,1-0.4,1.4,0c1.3,1.3,2.3,2.8,3,4.5&#10;&#9;&#9;&#9;&#9;c0.2,0.5,0,1.1-0.5,1.3C1171.5,792.5,1171.3,792.6,1171.2,792.6z M1150.3,788.5c-0.2,0-0.5-0.1-0.7-0.3c-0.4-0.4-0.4-1,0-1.4&#10;&#9;&#9;&#9;&#9;c1.3-1.3,2.8-2.3,4.5-3c0.5-0.2,1.1,0,1.3,0.5c0.2,0.5,0,1.1-0.5,1.3c-1.4,0.6-2.7,1.5-3.8,2.6&#10;&#9;&#9;&#9;&#9;C1150.8,788.4,1150.6,788.5,1150.3,788.5z M1164.3,785.7c-0.1,0-0.2,0-0.4-0.1c-1.4-0.6-2.9-0.9-4.5-0.9c-0.5,0-1-0.4-1-1&#10;&#9;&#9;&#9;&#9;c0-0.5,0.4-1,1-1v1l0-1c0,0,0,0,0,0c1.8,0,3.6,0.3,5.3,1c0.5,0.2,0.7,0.8,0.5,1.3C1165,785.4,1164.7,785.7,1164.3,785.7z"/>
		</g>
	</g></svg>