<svg xmlns="http://www.w3.org/2000/svg" width="512" height="128" viewBox="0 0 512 128" role="img" aria-label="NextGenCV logo"><defs><linearGradient id="g1" x1="0" y1="0" x2="1" y2="1"><stop offset="0%" stop-color="#4F46E5"/><stop offset="100%" stop-color="#3B82F6"/></linearGradient><linearGradient id="gText" x1="0" y1="0" x2="1" y2="0"><stop offset="0%" stop-color="#4F46E5"/><stop offset="100%" stop-color="#8B5CF6"/></linearGradient></defs><g transform="translate(12,12) scale(0.95)"><rect x="0" y="0" width="64" height="64" rx="12" fill="url(#g1)"/><rect x="46" y="8" width="8" height="8" rx="2" fill="#fff" opacity="0.95"/><rect x="34" y="8" width="8" height="8" rx="2" fill="#fff" opacity="0.7"/><rect x="22" y="8" width="8" height="8" rx="2" fill="#fff" opacity="0.45"/><path d="M20 45c0-12 9-23 22-23s22 11 22 23c-10-5-20-5-30 0H20z" fill="#fff" opacity="0.92"/><path d="M36 50c10-6 16-16 16-26" stroke="#fff" stroke-width="4" stroke-linecap="round" opacity="0.9"/></g><text x="98" y="60" font-family="Inter,Segoe UI,Roboto,Helvetica,Arial,sans-serif" font-size="40" font-weight="700" fill="#0F172A">NextGen</text><text x="298" y="60" font-family="Inter,Segoe UI,Roboto,Helvetica,Arial,sans-serif" font-size="40" font-weight="800" fill="url(#gText)">CV</text></svg>