<?xml version="1.0" encoding="UTF-8"?>
<svg xmlns="http://www.w3.org/2000/svg" xmlns:xlink="http://www.w3.org/1999/xlink" width="3873" height="3873" viewBox="0 0 3873 3873">
<defs>
<clipPath id="clip-0">
<path clip-rule="evenodd" d="M 1936.5 0 C 3006 0 3873 867 3873 1936.5 C 3873 3006 3006 3873 1936.5 3873 C 867 3873 0 3006 0 1936.5 C 0 867 867 0 1936.5 0 "/>
</clipPath>
<radialGradient id="radial-pattern-0" gradientUnits="userSpaceOnUse" cx="0" cy="0" fx="0" fy="0" r="1549.19" gradientTransform="matrix(1, 0, 0, 1, 1936.5, 1936.5)">
<stop offset="0" stop-color="rgb(33.201599%, 33.201599%, 33.201599%)" stop-opacity="1"/>
<stop offset="0.0078125" stop-color="rgb(32.876587%, 32.876587%, 32.876587%)" stop-opacity="1"/>
<stop offset="0.0195312" stop-color="rgb(32.485962%, 32.485962%, 32.485962%)" stop-opacity="1"/>
<stop offset="0.03125" stop-color="rgb(32.095337%, 32.095337%, 32.095337%)" stop-opacity="1"/>
<stop offset="0.0429688" stop-color="rgb(31.704712%, 31.704712%, 31.704712%)" stop-opacity="1"/>
<stop offset="0.0546875" stop-color="rgb(31.314087%, 31.314087%, 31.314087%)" stop-opacity="1"/>
<stop offset="0.0664062" stop-color="rgb(30.923462%, 30.923462%, 30.923462%)" stop-opacity="1"/>
<stop offset="0.078125" stop-color="rgb(30.532837%, 30.532837%, 30.532837%)" stop-opacity="1"/>
<stop offset="0.0898438" stop-color="rgb(30.142212%, 30.142212%, 30.142212%)" stop-opacity="1"/>
<stop offset="0.101562" stop-color="rgb(29.751587%, 29.751587%, 29.751587%)" stop-opacity="1"/>
<stop offset="0.113281" stop-color="rgb(29.360962%, 29.360962%, 29.360962%)" stop-opacity="1"/>
<stop offset="0.125" stop-color="rgb(28.970337%, 28.970337%, 28.970337%)" stop-opacity="1"/>
<stop offset="0.136719" stop-color="rgb(28.579712%, 28.579712%, 28.579712%)" stop-opacity="1"/>
<stop offset="0.148438" stop-color="rgb(28.189087%, 28.189087%, 28.189087%)" stop-opacity="1"/>
<stop offset="0.160156" stop-color="rgb(27.798462%, 27.798462%, 27.798462%)" stop-opacity="1"/>
<stop offset="0.171875" stop-color="rgb(27.407837%, 27.407837%, 27.407837%)" stop-opacity="1"/>
<stop offset="0.183594" stop-color="rgb(27.017212%, 27.017212%, 27.017212%)" stop-opacity="1"/>
<stop offset="0.195312" stop-color="rgb(26.626587%, 26.626587%, 26.626587%)" stop-opacity="1"/>
<stop offset="0.207031" stop-color="rgb(26.235962%, 26.235962%, 26.235962%)" stop-opacity="1"/>
<stop offset="0.21875" stop-color="rgb(25.845337%, 25.845337%, 25.845337%)" stop-opacity="1"/>
<stop offset="0.230469" stop-color="rgb(25.454712%, 25.454712%, 25.454712%)" stop-opacity="1"/>
<stop offset="0.242188" stop-color="rgb(25.064087%, 25.064087%, 25.064087%)" stop-opacity="1"/>
<stop offset="0.253906" stop-color="rgb(24.737549%, 24.737549%, 24.737549%)" stop-opacity="1"/>
<stop offset="0.261719" stop-color="rgb(24.478149%, 24.478149%, 24.478149%)" stop-opacity="1"/>
<stop offset="0.269531" stop-color="rgb(24.217224%, 24.217224%, 24.217224%)" stop-opacity="1"/>
<stop offset="0.277344" stop-color="rgb(23.956299%, 23.956299%, 23.956299%)" stop-opacity="1"/>
<stop offset="0.285156" stop-color="rgb(23.696899%, 23.696899%, 23.696899%)" stop-opacity="1"/>
<stop offset="0.292969" stop-color="rgb(23.435974%, 23.435974%, 23.435974%)" stop-opacity="1"/>
<stop offset="0.300781" stop-color="rgb(23.175049%, 23.175049%, 23.175049%)" stop-opacity="1"/>
<stop offset="0.308594" stop-color="rgb(22.915649%, 22.915649%, 22.915649%)" stop-opacity="1"/>
<stop offset="0.316406" stop-color="rgb(22.654724%, 22.654724%, 22.654724%)" stop-opacity="1"/>
<stop offset="0.324219" stop-color="rgb(22.393799%, 22.393799%, 22.393799%)" stop-opacity="1"/>
<stop offset="0.332031" stop-color="rgb(22.134399%, 22.134399%, 22.134399%)" stop-opacity="1"/>
<stop offset="0.339844" stop-color="rgb(21.873474%, 21.873474%, 21.873474%)" stop-opacity="1"/>
<stop offset="0.347656" stop-color="rgb(21.612549%, 21.612549%, 21.612549%)" stop-opacity="1"/>
<stop offset="0.355469" stop-color="rgb(21.353149%, 21.353149%, 21.353149%)" stop-opacity="1"/>
<stop offset="0.363281" stop-color="rgb(21.092224%, 21.092224%, 21.092224%)" stop-opacity="1"/>
<stop offset="0.371094" stop-color="rgb(20.831299%, 20.831299%, 20.831299%)" stop-opacity="1"/>
<stop offset="0.378906" stop-color="rgb(20.571899%, 20.571899%, 20.571899%)" stop-opacity="1"/>
<stop offset="0.386719" stop-color="rgb(20.310974%, 20.310974%, 20.310974%)" stop-opacity="1"/>
<stop offset="0.394531" stop-color="rgb(20.050049%, 20.050049%, 20.050049%)" stop-opacity="1"/>
<stop offset="0.402344" stop-color="rgb(19.790649%, 19.790649%, 19.790649%)" stop-opacity="1"/>
<stop offset="0.410156" stop-color="rgb(19.529724%, 19.529724%, 19.529724%)" stop-opacity="1"/>
<stop offset="0.417969" stop-color="rgb(19.268799%, 19.268799%, 19.268799%)" stop-opacity="1"/>
<stop offset="0.425781" stop-color="rgb(19.009399%, 19.009399%, 19.009399%)" stop-opacity="1"/>
<stop offset="0.433594" stop-color="rgb(18.748474%, 18.748474%, 18.748474%)" stop-opacity="1"/>
<stop offset="0.441406" stop-color="rgb(18.487549%, 18.487549%, 18.487549%)" stop-opacity="1"/>
<stop offset="0.449219" stop-color="rgb(18.228149%, 18.228149%, 18.228149%)" stop-opacity="1"/>
<stop offset="0.457031" stop-color="rgb(17.967224%, 17.967224%, 17.967224%)" stop-opacity="1"/>
<stop offset="0.464844" stop-color="rgb(17.706299%, 17.706299%, 17.706299%)" stop-opacity="1"/>
<stop offset="0.472656" stop-color="rgb(17.446899%, 17.446899%, 17.446899%)" stop-opacity="1"/>
<stop offset="0.480469" stop-color="rgb(17.185974%, 17.185974%, 17.185974%)" stop-opacity="1"/>
<stop offset="0.488281" stop-color="rgb(16.925049%, 16.925049%, 16.925049%)" stop-opacity="1"/>
<stop offset="0.496094" stop-color="rgb(16.665649%, 16.665649%, 16.665649%)" stop-opacity="1"/>
<stop offset="0.503906" stop-color="rgb(16.340637%, 16.340637%, 16.340637%)" stop-opacity="1"/>
<stop offset="0.515625" stop-color="rgb(15.950012%, 15.950012%, 15.950012%)" stop-opacity="1"/>
<stop offset="0.527344" stop-color="rgb(15.559387%, 15.559387%, 15.559387%)" stop-opacity="1"/>
<stop offset="0.539062" stop-color="rgb(15.168762%, 15.168762%, 15.168762%)" stop-opacity="1"/>
<stop offset="0.550781" stop-color="rgb(14.778137%, 14.778137%, 14.778137%)" stop-opacity="1"/>
<stop offset="0.5625" stop-color="rgb(14.387512%, 14.387512%, 14.387512%)" stop-opacity="1"/>
<stop offset="0.574219" stop-color="rgb(13.996887%, 13.996887%, 13.996887%)" stop-opacity="1"/>
<stop offset="0.585938" stop-color="rgb(13.606262%, 13.606262%, 13.606262%)" stop-opacity="1"/>
<stop offset="0.597656" stop-color="rgb(13.215637%, 13.215637%, 13.215637%)" stop-opacity="1"/>
<stop offset="0.609375" stop-color="rgb(12.825012%, 12.825012%, 12.825012%)" stop-opacity="1"/>
<stop offset="0.621094" stop-color="rgb(12.434387%, 12.434387%, 12.434387%)" stop-opacity="1"/>
<stop offset="0.632812" stop-color="rgb(12.107849%, 12.107849%, 12.107849%)" stop-opacity="1"/>
<stop offset="0.640625" stop-color="rgb(11.846924%, 11.846924%, 11.846924%)" stop-opacity="1"/>
<stop offset="0.648438" stop-color="rgb(11.587524%, 11.587524%, 11.587524%)" stop-opacity="1"/>
<stop offset="0.65625" stop-color="rgb(11.326599%, 11.326599%, 11.326599%)" stop-opacity="1"/>
<stop offset="0.664062" stop-color="rgb(11.065674%, 11.065674%, 11.065674%)" stop-opacity="1"/>
<stop offset="0.671875" stop-color="rgb(10.806274%, 10.806274%, 10.806274%)" stop-opacity="1"/>
<stop offset="0.679688" stop-color="rgb(10.545349%, 10.545349%, 10.545349%)" stop-opacity="1"/>
<stop offset="0.6875" stop-color="rgb(10.284424%, 10.284424%, 10.284424%)" stop-opacity="1"/>
<stop offset="0.695312" stop-color="rgb(10.025024%, 10.025024%, 10.025024%)" stop-opacity="1"/>
<stop offset="0.703125" stop-color="rgb(9.764099%, 9.764099%, 9.764099%)" stop-opacity="1"/>
<stop offset="0.710938" stop-color="rgb(9.503174%, 9.503174%, 9.503174%)" stop-opacity="1"/>
<stop offset="0.71875" stop-color="rgb(9.243774%, 9.243774%, 9.243774%)" stop-opacity="1"/>
<stop offset="0.726562" stop-color="rgb(8.982849%, 8.982849%, 8.982849%)" stop-opacity="1"/>
<stop offset="0.734375" stop-color="rgb(8.721924%, 8.721924%, 8.721924%)" stop-opacity="1"/>
<stop offset="0.742188" stop-color="rgb(8.462524%, 8.462524%, 8.462524%)" stop-opacity="1"/>
<stop offset="0.75" stop-color="rgb(8.201599%, 8.201599%, 8.201599%)" stop-opacity="1"/>
<stop offset="0.757812" stop-color="rgb(7.876587%, 7.876587%, 7.876587%)" stop-opacity="1"/>
<stop offset="0.769531" stop-color="rgb(7.485962%, 7.485962%, 7.485962%)" stop-opacity="1"/>
<stop offset="0.78125" stop-color="rgb(7.095337%, 7.095337%, 7.095337%)" stop-opacity="1"/>
<stop offset="0.792969" stop-color="rgb(6.704712%, 6.704712%, 6.704712%)" stop-opacity="1"/>
<stop offset="0.804688" stop-color="rgb(6.314087%, 6.314087%, 6.314087%)" stop-opacity="1"/>
<stop offset="0.816406" stop-color="rgb(5.987549%, 5.987549%, 5.987549%)" stop-opacity="1"/>
<stop offset="0.824219" stop-color="rgb(5.728149%, 5.728149%, 5.728149%)" stop-opacity="1"/>
<stop offset="0.832031" stop-color="rgb(5.467224%, 5.467224%, 5.467224%)" stop-opacity="1"/>
<stop offset="0.839844" stop-color="rgb(5.206299%, 5.206299%, 5.206299%)" stop-opacity="1"/>
<stop offset="0.847656" stop-color="rgb(4.946899%, 4.946899%, 4.946899%)" stop-opacity="1"/>
<stop offset="0.855469" stop-color="rgb(4.685974%, 4.685974%, 4.685974%)" stop-opacity="1"/>
<stop offset="0.863281" stop-color="rgb(4.425049%, 4.425049%, 4.425049%)" stop-opacity="1"/>
<stop offset="0.871094" stop-color="rgb(4.165649%, 4.165649%, 4.165649%)" stop-opacity="1"/>
<stop offset="0.878906" stop-color="rgb(3.840637%, 3.840637%, 3.840637%)" stop-opacity="1"/>
<stop offset="0.890625" stop-color="rgb(3.450012%, 3.450012%, 3.450012%)" stop-opacity="1"/>
<stop offset="0.902344" stop-color="rgb(3.059387%, 3.059387%, 3.059387%)" stop-opacity="1"/>
<stop offset="0.914062" stop-color="rgb(2.732849%, 2.732849%, 2.732849%)" stop-opacity="1"/>
<stop offset="0.921875" stop-color="rgb(2.471924%, 2.471924%, 2.471924%)" stop-opacity="1"/>
<stop offset="0.929688" stop-color="rgb(2.212524%, 2.212524%, 2.212524%)" stop-opacity="1"/>
<stop offset="0.9375" stop-color="rgb(1.951599%, 1.951599%, 1.951599%)" stop-opacity="1"/>
<stop offset="0.945312" stop-color="rgb(1.626587%, 1.626587%, 1.626587%)" stop-opacity="1"/>
<stop offset="0.957031" stop-color="rgb(1.300049%, 1.300049%, 1.300049%)" stop-opacity="1"/>
<stop offset="0.964844" stop-color="rgb(1.040649%, 1.040649%, 1.040649%)" stop-opacity="1"/>
<stop offset="0.972656" stop-color="rgb(0.715637%, 0.715637%, 0.715637%)" stop-opacity="1"/>
<stop offset="0.984375" stop-color="rgb(0.389099%, 0.389099%, 0.389099%)" stop-opacity="1"/>
<stop offset="0.992188" stop-color="rgb(0.1297%, 0.1297%, 0.1297%)" stop-opacity="1"/>
<stop offset="1" stop-color="rgb(0%, 0%, 0%)" stop-opacity="1"/>
</radialGradient>
</defs>
<g clip-path="url(#clip-0)">
<rect x="-387.3" y="-387.3" width="4647.6" height="4647.6" fill="url(#radial-pattern-0)"/>
</g>
<path fill-rule="evenodd" fill="rgb(100%, 100%, 99.609375%)" fill-opacity="1" d="M 1379.300781 2563.101562 C 1362.699219 2563.101562 1349.300781 2549.699219 1349.300781 2533.101562 L 1349.300781 2083 C 1349.300781 2066.398438 1362.699219 2053 1379.300781 2053 C 1395.898438 2053 1409.300781 2066.398438 1409.300781 2083 L 1409.300781 2533.101562 C 1409.300781 2549.699219 1395.800781 2563.101562 1379.300781 2563.101562 "/>
<path fill-rule="evenodd" fill="rgb(100%, 100%, 99.609375%)" fill-opacity="1" d="M 1409.300781 2302.5 L 1549.5 2302.5 C 1601.699219 2302.5 1644.199219 2260 1644.199219 2207.800781 C 1644.199219 2155.601562 1601.699219 2113.101562 1549.5 2113.101562 L 1409.300781 2113.101562 Z M 1549.398438 2362.5 L 1379.199219 2362.5 C 1362.601562 2362.5 1349.199219 2349.101562 1349.199219 2332.5 L 1349.199219 2083 C 1349.199219 2066.398438 1362.601562 2053 1379.199219 2053 L 1549.398438 2053 C 1634.699219 2053 1704.101562 2122.398438 1704.101562 2207.699219 C 1704.199219 2293.101562 1634.800781 2362.5 1549.398438 2362.5 "/>
<path fill-rule="evenodd" fill="rgb(100%, 100%, 99.609375%)" fill-opacity="1" d="M 1855.300781 2503.101562 L 1972.699219 2503.101562 C 2037.5 2503.101562 2090.199219 2450.398438 2090.199219 2385.601562 L 2090.199219 2230.398438 C 2090.199219 2165.601562 2037.5 2112.898438 1972.699219 2112.898438 L 1855.300781 2112.898438 Z M 1972.800781 2563.101562 L 1825.398438 2563.101562 C 1808.800781 2563.101562 1795.398438 2549.699219 1795.398438 2533.101562 L 1795.398438 2083 C 1795.398438 2066.398438 1808.800781 2053 1825.398438 2053 L 1972.800781 2053 C 2070.699219 2053 2150.300781 2132.601562 2150.300781 2230.5 L 2150.300781 2385.699219 C 2150.199219 2483.5 2070.699219 2563.101562 1972.800781 2563.101562 "/>
<path fill-rule="evenodd" fill="rgb(100%, 100%, 99.609375%)" fill-opacity="1" d="M 2271.398438 2563.101562 C 2254.800781 2563.101562 2241.398438 2549.699219 2241.398438 2533.101562 L 2241.398438 2083 C 2241.398438 2066.398438 2254.800781 2053 2271.398438 2053 C 2288 2053 2301.398438 2066.398438 2301.398438 2083 L 2301.398438 2533.101562 C 2301.398438 2549.699219 2288 2563.101562 2271.398438 2563.101562 "/>
<path fill-rule="evenodd" fill="rgb(100%, 100%, 99.609375%)" fill-opacity="1" d="M 2493.699219 2113.101562 L 2271.300781 2113.101562 C 2254.699219 2113.101562 2241.300781 2099.699219 2241.300781 2083.101562 C 2241.300781 2066.5 2254.699219 2053.101562 2271.300781 2053.101562 L 2493.699219 2053.101562 C 2510.300781 2053.101562 2523.699219 2066.5 2523.699219 2083.101562 C 2523.800781 2099.699219 2510.300781 2113.101562 2493.699219 2113.101562 Z M 2493.699219 2362.5 L 2271.300781 2362.5 C 2254.699219 2362.5 2241.300781 2349.101562 2241.300781 2332.5 C 2241.300781 2315.898438 2254.699219 2302.5 2271.300781 2302.5 L 2493.699219 2302.5 C 2510.300781 2302.5 2523.699219 2315.898438 2523.699219 2332.5 C 2523.699219 2349.101562 2510.300781 2362.5 2493.699219 2362.5 "/>
<path fill-rule="evenodd" fill="rgb(100%, 100%, 99.609375%)" fill-opacity="1" d="M 1155 1895 L 2718 1895 C 2721.300781 1895 2724.699219 1895.101562 2728 1895.300781 L 2728 1308.601562 L 2391.101562 971.699219 L 1275.101562 971.699219 C 1203.398438 971.699219 1145 1030 1145 1101.800781 L 1145 1895.199219 C 1148.398438 1895.101562 1151.699219 1895 1155 1895 Z M 1115 1960.398438 C 1108.5 1960.398438 1102 1958.300781 1096.699219 1954.199219 C 1089.300781 1948.5 1084.898438 1939.699219 1084.898438 1930.398438 L 1084.898438 1101.898438 C 1084.898438 997.101562 1170.199219 911.800781 1275 911.800781 L 2403.5 911.800781 C 2411.5 911.800781 2419.101562 915 2424.699219 920.601562 L 2779.199219 1275.101562 C 2784.800781 1280.699219 2788 1288.398438 2788 1296.300781 L 2788 1930.398438 C 2788 1939.699219 2783.699219 1948.5 2776.199219 1954.199219 C 2768.800781 1959.898438 2759.101562 1961.800781 2750.101562 1959.300781 C 2739.601562 1956.5 2728.800781 1955 2717.898438 1955 L 1155 1955 C 1144.101562 1955 1133.300781 1956.398438 1122.800781 1959.300781 C 1120.300781 1960 1117.601562 1960.398438 1115 1960.398438 Z M 1145 2720.800781 L 1145 2771.101562 C 1145 2842.800781 1203.300781 2901.199219 1275.101562 2901.199219 L 2598 2901.199219 C 2669.699219 2901.199219 2728.101562 2842.898438 2728.101562 2771.101562 L 2728.101562 2720.800781 C 2724.800781 2721 2721.398438 2721.101562 2718.101562 2721.101562 L 1155 2721.101562 C 1151.699219 2721.101562 1148.398438 2721 1145 2720.800781 Z M 2597.898438 2961.199219 L 1275.101562 2961.199219 C 1170.300781 2961.199219 1085 2875.898438 1085 2771.101562 L 1085 2685.800781 C 1085 2676.5 1089.300781 2667.699219 1096.800781 2661.898438 C 1104.199219 2656.199219 1113.898438 2654.300781 1122.898438 2656.699219 C 1133.398438 2659.5 1144.199219 2661 1155.101562 2661 L 2718.101562 2661 C 2729 2661 2739.800781 2659.601562 2750.300781 2656.699219 C 2759.300781 2654.300781 2769 2656.199219 2776.398438 2661.800781 C 2783.800781 2667.5 2788.199219 2676.300781 2788.199219 2685.601562 L 2788.199219 2770.898438 C 2788 2876 2702.800781 2961.199219 2597.898438 2961.199219 "/>
<path fill-rule="evenodd" fill="rgb(100%, 100%, 99.609375%)" fill-opacity="1" d="M 2433.601562 1014.300781 L 2433.601562 1100.101562 C 2433.601562 1191.699219 2508.101562 1266.199219 2599.699219 1266.199219 L 2685.5 1266.199219 Z M 2758 1326.199219 L 2599.699219 1326.199219 C 2475 1326.199219 2373.5 1224.800781 2373.5 1100 L 2373.5 941.800781 C 2373.5 929.699219 2380.800781 918.699219 2392.101562 914.101562 C 2403.300781 909.398438 2416.199219 912 2424.800781 920.601562 L 2779.199219 1275 C 2787.800781 1283.601562 2790.398438 1296.5 2785.699219 1307.699219 C 2781.101562 1318.898438 2770.101562 1326.199219 2758 1326.199219 "/>
<path fill-rule="evenodd" fill="rgb(100%, 100%, 99.609375%)" fill-opacity="1" d="M 1155 1955.101562 C 1086.5 1955.101562 1030.699219 2010.898438 1030.699219 2079.398438 L 1030.699219 2536.699219 C 1030.699219 2605.199219 1086.5 2661 1155 2661 L 2718 2661 C 2786.5 2661 2842.300781 2605.199219 2842.300781 2536.699219 L 2842.300781 2079.398438 C 2842.300781 2010.898438 2786.5 1955.101562 2718 1955.101562 Z M 2718 2721.101562 L 1155 2721.101562 C 1053.300781 2721.101562 970.601562 2638.398438 970.601562 2536.699219 L 970.601562 2079.398438 C 970.601562 1977.699219 1053.300781 1895 1155 1895 L 2718 1895 C 2819.699219 1895 2902.398438 1977.699219 2902.398438 2079.398438 L 2902.398438 2536.699219 C 2902.398438 2638.398438 2819.699219 2721.101562 2718 2721.101562 "/>
<path fill-rule="evenodd" fill="rgb(100%, 100%, 99.609375%)" fill-opacity="1" d="M 2030.898438 1522.199219 L 1451 1522.199219 C 1434.398438 1522.199219 1421 1508.800781 1421 1492.199219 C 1421 1475.601562 1434.398438 1462.199219 1451 1462.199219 L 2030.898438 1462.199219 C 2047.5 1462.199219 2060.898438 1475.601562 2060.898438 1492.199219 C 2060.898438 1508.800781 2047.5 1522.199219 2030.898438 1522.199219 "/>
<path fill-rule="evenodd" fill="rgb(100%, 100%, 99.609375%)" fill-opacity="1" d="M 2422 1522.199219 L 2289 1522.199219 C 2272.398438 1522.199219 2259 1508.800781 2259 1492.199219 C 2259 1475.601562 2272.398438 1462.199219 2289 1462.199219 L 2422 1462.199219 C 2438.601562 1462.199219 2452 1475.601562 2452 1492.199219 C 2452 1508.800781 2438.601562 1522.199219 2422 1522.199219 "/>
<path fill-rule="evenodd" fill="rgb(100%, 100%, 99.609375%)" fill-opacity="1" d="M 2030.898438 1781.398438 L 1451 1781.398438 C 1434.398438 1781.398438 1421 1768 1421 1751.398438 C 1421 1734.800781 1434.398438 1721.398438 1451 1721.398438 L 2030.898438 1721.398438 C 2047.5 1721.398438 2060.898438 1734.800781 2060.898438 1751.398438 C 2060.898438 1768 2047.5 1781.398438 2030.898438 1781.398438 "/>
<path fill-rule="evenodd" fill="rgb(100%, 100%, 99.609375%)" fill-opacity="1" d="M 2422 1781.398438 L 2289 1781.398438 C 2272.398438 1781.398438 2259 1768 2259 1751.398438 C 2259 1734.800781 2272.398438 1721.398438 2289 1721.398438 L 2422 1721.398438 C 2438.601562 1721.398438 2452 1734.800781 2452 1751.398438 C 2452 1768 2438.601562 1781.398438 2422 1781.398438 "/>
</svg>
